<mxfile host="app.diagrams.net" agent="Mozilla/5.0 (Macintosh; Intel Mac OS X 10_15_7) AppleWebKit/537.36 (KHTML, like Gecko) Chrome/135.0.0.0 Safari/537.36" version="26.2.14">
  <diagram name="Page-1" id="Yl3JkFENhUaPnrKSbu8s">
    <mxGraphModel dx="2084" dy="-379" grid="1" gridSize="10" guides="1" tooltips="1" connect="1" arrows="1" fold="1" page="1" pageScale="1" pageWidth="850" pageHeight="1100" math="0" shadow="0">
      <root>
        <mxCell id="0" />
        <mxCell id="1" parent="0" />
        <mxCell id="p3CoxOxOetRKkpcrqFFQ-1" value="" style="rounded=1;whiteSpace=wrap;html=1;strokeColor=#475E75;fillColor=#F5F6F7;arcSize=24;absoluteArcSize=1;imageWidth=64;imageHeight=64;strokeWidth=1.5;" vertex="1" parent="1">
          <mxGeometry x="-419.27" y="1772" width="739.27" height="384" as="geometry" />
        </mxCell>
        <mxCell id="p3CoxOxOetRKkpcrqFFQ-2" value="" style="group" vertex="1" connectable="0" parent="1">
          <mxGeometry x="-105" y="1620" width="550" height="90" as="geometry" />
        </mxCell>
        <mxCell id="p3CoxOxOetRKkpcrqFFQ-3" value="" style="group" vertex="1" connectable="0" parent="p3CoxOxOetRKkpcrqFFQ-2">
          <mxGeometry width="550" height="90" as="geometry" />
        </mxCell>
        <mxCell id="p3CoxOxOetRKkpcrqFFQ-4" value="" style="rounded=1;whiteSpace=wrap;html=1;strokeColor=#0070F2;fillColor=#EBF8FF;arcSize=32;absoluteArcSize=1;imageWidth=64;imageHeight=64;strokeWidth=1.5;" vertex="1" parent="p3CoxOxOetRKkpcrqFFQ-3">
          <mxGeometry width="550" height="90" as="geometry" />
        </mxCell>
        <mxCell id="p3CoxOxOetRKkpcrqFFQ-5" value="" style="shape=image;verticalLabelPosition=bottom;labelBackgroundColor=default;verticalAlign=top;aspect=fixed;imageAspect=0;image=data:image/svg+xml,PHN2ZyB4bWxuczp4bGluaz0iaHR0cDovL3d3dy53My5vcmcvMTk5OS94bGluayIgeG1sbnM9Imh0dHA6Ly93d3cudzMub3JnLzIwMDAvc3ZnIiB2aWV3Qm94PSIwIDAgMTQ0Ljc0NyAzOS44MzIiIGlkPSJhIj48ZGVmcz48bGluZWFyR3JhZGllbnQgZ3JhZGllbnRVbml0cz0idXNlclNwYWNlT25Vc2UiIHkyPSIzOS44MzIiIHgyPSI0MC4yNTgiIHkxPSIwIiB4MT0iNDAuMjU4IiBpZD0iYiI+PHN0b3Agc3RvcC1jb2xvcj0iIzAwYjhmMSIgb2Zmc2V0PSIwIi8+PHN0b3Agc3RvcC1jb2xvcj0iIzAwYjVlZiIgb2Zmc2V0PSIuMDE2Ii8+PHN0b3Agc3RvcC1jb2xvcj0iIzBkOTBkOCIgb2Zmc2V0PSIuMzA4Ii8+PHN0b3Agc3RvcC1jb2xvcj0iIzE2NzVjOCIgb2Zmc2V0PSIuNTc4Ii8+PHN0b3Agc3RvcC1jb2xvcj0iIzFjNjRiZSIgb2Zmc2V0PSIuODE3Ii8+PHN0b3Agc3RvcC1jb2xvcj0iIzFlNWZiYiIgb2Zmc2V0PSIxIi8+PC9saW5lYXJHcmFkaWVudD48L2RlZnM+PHBvbHlsaW5lIGZpbGwtcnVsZT0iZXZlbm9kZCIgZmlsbD0idXJsKCNiKSIgcG9pbnRzPSIwIDM5LjgzMiA0MC42OTIgMzkuODMyIDgwLjUxNyAwIDAgMCAwIDM5LjgzMiIvPjxwYXRoIGZpbGwtcnVsZT0iZXZlbm9kZCIgZmlsbD0iI2ZmZiIgZD0ibTQ3Ljc4Miw3LjQ4OWwtNy45MjUtLjAwNXYxOC44NDVsLTYuOTI0LTE4Ljg0NWgtNi44NjVsLTUuOTEyLDE1Ljc1OWMtLjYzLTMuOTczLTQuNzQtNS4zNDUtNy45NzQtNi4zNzQtMi4xMzUtLjY4Ni00LjQwMS0xLjY5NC00LjM4LTIuODA5LjAxNy0uOTE1LDEuMjE1LTEuNzY1LDMuNTg5LTEuNjM3LDEuNTk1LjA4NCwzLjAwMS4yMTMsNS44LDEuNTYzbDIuNzUzLTQuNzk1Yy0yLjU1NS0xLjMtNi4wODYtMi4xMjEtOC45NzgtMi4xMjRoLS4wMTdjLTMuMzc0LDAtNi4xODUsMS4wOTMtNy45MjgsMi44OTQtMS4yMTQsMS4yNTgtMS44NjksMi44NTYtMS44OTYsNC42MjMtLjA0NCwyLjQzMi44NDgsNC4xNTcsMi43MjEsNS41MzMsMS41ODMsMS4xNiwzLjYwNiwxLjkxMiw1LjM5LDIuNDY1LDIuMjAxLjY4MSwzLjk5NiwxLjI3NCwzLjk3NSwyLjUzOS0uMDE2LjQ1OS0uMTkxLjg4OC0uNTIxLDEuMjM2LS41NDguNTY2LTEuMzkxLjc3OS0yLjU1NS43OTktMi4yNDQuMDQ4LTMuOTEtLjMwMy02LjU2Mi0xLjg3bC0yLjQ0OCw0Ljg2MWMyLjY0NCwxLjUwNiw1Ljc3NiwyLjM4OCw4Ljk3MiwyLjM4OGwuNDExLS4wMDZjMi43ODItLjA1LDUuMDI2LS44NDIsNi44Mi0yLjI4Ni4xMDMtLjA4MS4xOTYtLjE2Ni4yOTEtLjI1bC0uNzk1LDIuMTIzaDcuMmwxLjIwOC0zLjY3NGMxLjI2NS40MzMsMi43MDQuNjcxLDQuMjMyLjY3MSwxLjQ4NywwLDIuODg5LS4yMjksNC4xMzEtLjYzNWwxLjE2NCwzLjYzN2gxMS43NDJ2LTcuNjA3aDIuNTYxYzYuMTg4LDAsOS44NTEtMy4xNTQsOS44NTEtOC40MzYsMC01Ljg4NS0zLjU1Ny04LjU4NS0xMS4xMzItOC41ODVabS0xOC4zMTcsMTYuMTI0Yy0uOTI1LDAtMS43OTItLjE2LTIuNTM5LS40NDNsMi41MTItNy45MjZoLjA0OGwyLjQ2OCw3Ljk0OGMtLjc0Mi4yNjMtMS41ODkuNDIxLTIuNDg4LjQyMVptMTguNzgzLTQuNTUzaC0xLjc0NnYtNi4zODZoMS43NDZjMi4zMjgsMCw0LjE4NS43NzMsNC4xODUsMy4xNTEsMCwyLjQ2MS0xLjg1NywzLjIzNi00LjE4NSwzLjIzNiIvPjxwYXRoIGZpbGw9IiMwMDJhODYiIGQ9Im04MC4yMTcsNy40MDFoMTAuMDYzYzUuNTk1LDAsOC42NzQsMS45MTcsOC42NzQsNi4xNTgsMCwyLjkwMy0xLjUxMyw1LjAxNC00LjMxMSw1LjcsMy4yOS40NTgsNS4yNzgsMi41ODYsNS4yNzgsNS44OTQsMCw1LjAxNC00LjA2NCw3LjAzNy05LjE4NCw3LjAzN2gtMTAuNTIxVjcuNDAxWm0xMy45NjksNi44MjZjMC0yLjE2NC0xLjQ5Ni0yLjk3My00LjI0LTIuOTczaC01LjA0OXY2LjI5OGg0Ljg5MWMzLjIwMiwwLDQuMzk4LTEuMTYxLDQuMzk4LTMuMzI1Wm0xLjAyMSwxMC41MjFjMC0yLjM1Ny0xLjc3Ny0zLjQ2Ni00LjgzOS0zLjQ2NmgtNS40NzF2Ny4wNTVoNS41MDZjMi44MTUsMCw0LjgwNC0uNzc0LDQuODA0LTMuNTg5WiIvPjxwYXRoIGZpbGw9IiMwMDJhODYiIGQ9Im0xMDkuMDUxLDExLjVoLTcuNTgzdi00LjA5OWgxOS44NDZ2NC4wOTloLTcuNTY1djIwLjY5aC00LjY5N1YxMS41WiIvPjxwYXRoIGZpbGw9IiMwMDJhODYiIGQ9Im0xMjUuMTQ4LDcuNDAxaDEwLjUwNGM2LjE5MiwwLDkuMDk2LDMuMTg1LDkuMDk2LDcuODk5LDAsNC4zOTgtMi44MzMsOC4xNDYtOC44NSw4LjE0NmgtNi4wN3Y4Ljc0NGgtNC42OFY3LjQwMVptMTQuOTAyLDcuOTUyYzAtMi41NTEtMS42ODktMy45MjMtNC45NDQtMy45MjNoLTUuMjc4djguMDRoNS40MTljMy4yNzIsMCw0LjgwNC0xLjU4Myw0LjgwNC00LjExN1oiLz48L3N2Zz4=;strokeWidth=1.5;" vertex="1" parent="p3CoxOxOetRKkpcrqFFQ-3">
          <mxGeometry x="15.28" y="10" width="74.72" height="20.61" as="geometry" />
        </mxCell>
        <mxCell id="p3CoxOxOetRKkpcrqFFQ-6" value="Business Technology Platform" style="text;strokeColor=none;fillColor=none;html=1;align=center;verticalAlign=middle;whiteSpace=wrap;rounded=0;fontSize=20;" vertex="1" parent="p3CoxOxOetRKkpcrqFFQ-3">
          <mxGeometry x="175.69444444444443" y="30" width="225.3472222222222" height="30" as="geometry" />
        </mxCell>
        <mxCell id="p3CoxOxOetRKkpcrqFFQ-7" value="" style="rounded=1;whiteSpace=wrap;html=1;strokeColor=#5d36ff;fillColor=#f1ecff;arcSize=24;absoluteArcSize=1;imageWidth=64;imageHeight=64;strokeWidth=1.5;" vertex="1" parent="1">
          <mxGeometry x="70" y="1839" width="200" height="285" as="geometry" />
        </mxCell>
        <mxCell id="p3CoxOxOetRKkpcrqFFQ-8" value="" style="rounded=1;whiteSpace=wrap;html=1;strokeColor=#5d36ff;fillColor=#FFFFFF;arcSize=24;absoluteArcSize=1;imageWidth=64;imageHeight=64;strokeWidth=1.5;" vertex="1" parent="1">
          <mxGeometry x="88" y="1889" width="160" height="57" as="geometry" />
        </mxCell>
        <mxCell id="p3CoxOxOetRKkpcrqFFQ-9" value="RISE" style="text;strokeColor=none;fillColor=none;html=1;align=center;verticalAlign=middle;whiteSpace=wrap;rounded=0;fontSize=20;" vertex="1" parent="1">
          <mxGeometry x="100" y="1849" width="130" height="30" as="geometry" />
        </mxCell>
        <mxCell id="p3CoxOxOetRKkpcrqFFQ-10" value="HCM" style="rounded=1;whiteSpace=wrap;html=1;strokeColor=#5d36ff;fillColor=#FFFFFF;arcSize=24;absoluteArcSize=1;imageWidth=64;imageHeight=64;strokeWidth=1.5;" vertex="1" parent="1">
          <mxGeometry x="90" y="1959" width="160" height="57" as="geometry" />
        </mxCell>
        <mxCell id="p3CoxOxOetRKkpcrqFFQ-11" value="..." style="rounded=1;whiteSpace=wrap;html=1;strokeColor=#5d36ff;fillColor=#FFFFFF;arcSize=24;absoluteArcSize=1;imageWidth=64;imageHeight=64;strokeWidth=1.5;" vertex="1" parent="1">
          <mxGeometry x="90" y="2029" width="160" height="57" as="geometry" />
        </mxCell>
        <mxCell id="p3CoxOxOetRKkpcrqFFQ-12" value="Microsoft Azure" style="text;strokeColor=none;fillColor=none;html=1;align=center;verticalAlign=middle;whiteSpace=wrap;rounded=0;fontSize=20;" vertex="1" parent="1">
          <mxGeometry x="-312.27" y="1841" width="60" height="30" as="geometry" />
        </mxCell>
        <mxCell id="p3CoxOxOetRKkpcrqFFQ-13" value="Azure Portal" style="rounded=1;whiteSpace=wrap;html=1;strokeColor=#475E75;fillColor=#ffffff;arcSize=24;absoluteArcSize=1;imageWidth=64;imageHeight=64;strokeWidth=1.5;" vertex="1" parent="1">
          <mxGeometry x="-399.27" y="1906" width="230" height="50" as="geometry" />
        </mxCell>
        <mxCell id="p3CoxOxOetRKkpcrqFFQ-14" value="Prostore" style="rounded=1;whiteSpace=wrap;html=1;strokeColor=#475E75;fillColor=#ffffff;arcSize=24;absoluteArcSize=1;imageWidth=64;imageHeight=64;strokeWidth=1.5;" vertex="1" parent="1">
          <mxGeometry x="-399.27" y="1966" width="230" height="50" as="geometry" />
        </mxCell>
        <mxCell id="p3CoxOxOetRKkpcrqFFQ-15" value="FRiDA" style="rounded=1;whiteSpace=wrap;html=1;strokeColor=#475E75;fillColor=#ffffff;arcSize=24;absoluteArcSize=1;imageWidth=64;imageHeight=64;strokeWidth=1.5;" vertex="1" parent="1">
          <mxGeometry x="-399.27" y="2026" width="230" height="50" as="geometry" />
        </mxCell>
        <mxCell id="p3CoxOxOetRKkpcrqFFQ-16" value="..." style="rounded=1;whiteSpace=wrap;html=1;strokeColor=#475E75;fillColor=#ffffff;arcSize=24;absoluteArcSize=1;imageWidth=64;imageHeight=64;strokeWidth=1.5;" vertex="1" parent="1">
          <mxGeometry x="-399.27" y="2086" width="230" height="50" as="geometry" />
        </mxCell>
        <mxCell id="p3CoxOxOetRKkpcrqFFQ-17" value="" style="rounded=1;whiteSpace=wrap;html=1;strokeColor=#0070F2;fillColor=#EBF8FF;arcSize=32;absoluteArcSize=1;imageWidth=64;imageHeight=64;strokeWidth=1.5;" vertex="1" parent="1">
          <mxGeometry x="466.00000000000006" y="1410.02" width="180" height="80" as="geometry" />
        </mxCell>
        <mxCell id="p3CoxOxOetRKkpcrqFFQ-18" value="" style="shape=image;verticalLabelPosition=bottom;labelBackgroundColor=default;verticalAlign=top;aspect=fixed;imageAspect=0;image=data:image/svg+xml,PHN2ZyB4bWxuczp4bGluaz0iaHR0cDovL3d3dy53My5vcmcvMTk5OS94bGluayIgeG1sbnM9Imh0dHA6Ly93d3cudzMub3JnLzIwMDAvc3ZnIiB2aWV3Qm94PSIwIDAgMTk4LjY0IDM5LjgzIiBpZD0iTGF5b3V0Ij48ZGVmcz48c3R5bGU+LmNscy0xe2ZpbGw6dXJsKCNsaW5lYXItZ3JhZGllbnQpO30uY2xzLTEsLmNscy0ye2ZpbGwtcnVsZTpldmVub2RkO30uY2xzLTN7ZmlsbDojMDAyYTg2O30uY2xzLTJ7ZmlsbDojZmZmO308L3N0eWxlPjxsaW5lYXJHcmFkaWVudCBncmFkaWVudFVuaXRzPSJ1c2VyU3BhY2VPblVzZSIgeTI9IjM5LjgzIiB4Mj0iNDAuMjYiIHkxPSIwIiB4MT0iNDAuMjYiIGlkPSJsaW5lYXItZ3JhZGllbnQiPjxzdG9wIHN0b3AtY29sb3I9IiMwMGI4ZjEiIG9mZnNldD0iMCIvPjxzdG9wIHN0b3AtY29sb3I9IiMwMGI1ZWYiIG9mZnNldD0iLjAyIi8+PHN0b3Agc3RvcC1jb2xvcj0iIzBkOTBkOCIgb2Zmc2V0PSIuMzEiLz48c3RvcCBzdG9wLWNvbG9yPSIjMTY3NWM4IiBvZmZzZXQ9Ii41OCIvPjxzdG9wIHN0b3AtY29sb3I9IiMxYzY0YmUiIG9mZnNldD0iLjgyIi8+PHN0b3Agc3RvcC1jb2xvcj0iIzFlNWZiYiIgb2Zmc2V0PSIxIi8+PC9saW5lYXJHcmFkaWVudD48L2RlZnM+PHBvbHlsaW5lIHBvaW50cz0iMCAzOS44MyA0MC42OSAzOS44MyA4MC41MiAwIDAgMCAwIDM5LjgzIiBjbGFzcz0iY2xzLTEiLz48cGF0aCBkPSJtNDcuNzgsNy40OWgtNy45MnMwLDE4Ljg0LDAsMTguODRsLTYuOTItMTguODRoLTYuODZsLTUuOTEsMTUuNzZjLS42My0zLjk3LTQuNzQtNS4zNS03Ljk3LTYuMzctMi4xNC0uNjktNC40LTEuNjktNC4zOC0yLjgxLjAyLS45MiwxLjIyLTEuNzcsMy41OS0xLjY0LDEuNi4wOCwzLC4yMSw1LjgsMS41NmwyLjc1LTQuNzljLTIuNTYtMS4zLTYuMDktMi4xMi04Ljk4LTIuMTJoLS4wMmMtMy4zNywwLTYuMTgsMS4wOS03LjkzLDIuODktMS4yMSwxLjI2LTEuODcsMi44Ni0xLjksNC42Mi0uMDQsMi40My44NSw0LjE2LDIuNzIsNS41MywxLjU4LDEuMTYsMy42MSwxLjkxLDUuMzksMi40NywyLjIuNjgsNCwxLjI3LDMuOTgsMi41NC0uMDIuNDYtLjE5Ljg5LS41MiwxLjI0LS41NS41Ny0xLjM5Ljc4LTIuNTUuOC0yLjI0LjA1LTMuOTEtLjMtNi41Ni0xLjg3bC0yLjQ1LDQuODZjMi42NCwxLjUxLDUuNzgsMi4zOSw4Ljk3LDIuMzloLjQxYzIuNzgtLjA2LDUuMDMtLjg1LDYuODItMi4yOS4xLS4wOC4yLS4xNy4yOS0uMjVsLS44LDIuMTJoNy4ybDEuMjEtMy42N2MxLjI2LjQzLDIuNy42Nyw0LjIzLjY3czIuODktLjIzLDQuMTMtLjYzbDEuMTYsMy42NGgxMS43NHYtNy42MWgyLjU2YzYuMTksMCw5Ljg1LTMuMTUsOS44NS04LjQ0LDAtNS44OC0zLjU2LTguNTktMTEuMTMtOC41OVptLTE4LjMyLDE2LjEyYy0uOTIsMC0xLjc5LS4xNi0yLjU0LS40NGwyLjUxLTcuOTNoLjA1bDIuNDcsNy45NWMtLjc0LjI2LTEuNTkuNDItMi40OS40MlptMTguNzgtNC41NWgtMS43NXYtNi4zOWgxLjc1YzIuMzMsMCw0LjE4Ljc3LDQuMTgsMy4xNXMtMS44NiwzLjI0LTQuMTgsMy4yNCIgY2xhc3M9ImNscy0yIi8+PHBhdGggZD0ibTgwLjEzLDE5Ljc5YzAtOC42Nyw1LjU2LTEyLjc2LDEyLjYxLTEyLjc2LDQuMjksMCw3LjUsMS41LDkuNzUsNC4wOGwtMy4xNSwzLjE1Yy0xLjQyLTEuODUtMy40NS0zLjA4LTYuNTgtMy4wOC00Ljg5LDAtNy43OSwyLjk5LTcuNzksOC42czIuOSw4LjYyLDcuNzksOC42MmMzLjEzLDAsNS4xNi0xLjIzLDYuNTgtMy4wOGwzLjE1LDMuMTVjLTIuMjMsMi41Ny01LjQ3LDQuMDYtOS43NSw0LjA2LTcuMDUsMC0xMi42MS00LjA2LTEyLjYxLTEyLjc2WiIgY2xhc3M9ImNscy0zIi8+PHBhdGggZD0ibTEwMy45MSwyMi41N2MwLTYuMDcsNC4wNS05Ljk5LDkuOC05Ljk5czkuOCwzLjkyLDkuOCw5Ljk5LTQuMDUsOS45OC05LjgsOS45OC05LjgtMy45MS05LjgtOS45OFptMTQuOTQsMGMwLTQuMTUtMi4xNS02LjM3LTUuMTQtNi4zN3MtNS4xNCwyLjIyLTUuMTQsNi4zNywyLjE1LDYuMzcsNS4xNCw2LjM3LDUuMTQtMi4yMyw1LjE0LTYuMzdaIiBjbGFzcz0iY2xzLTMiLz48cGF0aCBkPSJtMTI2Ljk3LDEyLjk0aDQuMzF2NC4wNWguMDdjLjg4LTIuMiwyLjY0LTQuNDIsNi4zMi00LjQyLDQuMTMsMCw1Ljk4LDIuODEsNS45OCw2LjkxdjEyLjdoLTQuNDV2LTExLjYzYzAtMi41OS0uOS00LjE1LTMuNDgtNC4xNXMtNC4yOSwxLjc2LTQuMjksNXYxMC43OGgtNC40NVYxMi45NFoiIGNsYXNzPSJjbHMtMyIvPjxwYXRoIGQ9Im0xNDYuOTYsMjIuNTdjMC02LjQsNC4wMS05Ljk5LDkuNjktOS45OSwzLjY0LDAsNi4xNiwxLjQ0LDcuNjksMy41MmwtMi44NSwyLjUyYy0xLjExLTEuNTUtMi41OS0yLjQxLTQuNjQtMi40MS0zLjExLDAtNS4yMywyLjExLTUuMjMsNi4zN3MyLjExLDYuMzcsNS4yMyw2LjM3YzIuMDQsMCwzLjUyLS44OCw0LjY0LTIuNDNsMi44NSwyLjUzYy0xLjUzLDIuMDgtNC4wNSwzLjUtNy42OSwzLjUtNS42OCwwLTkuNjktMy41OS05LjY5LTkuOThaIiBjbGFzcz0iY2xzLTMiLz48cGF0aCBkPSJtMTY2Ljc0LDI1LjYzdi0xMi42OGg0LjQ3djExLjYzYzAsMi41Ny44OCw0LjE1LDMuNDcsNC4xNXM0LjMxLTEuNzgsNC4zMS01LjAxdi0xMC43N2g0LjQzdjE5LjI1aC00LjI5di00LjA2aC0uMDljLS44OCwyLjIyLTIuNjIsNC40Mi02LjMyLDQuNDItNC4xMiwwLTUuOTgtMi44MS01Ljk4LTYuOTFaIiBjbGFzcz0iY2xzLTMiLz48cGF0aCBkPSJtMTg4LjEsMTIuOTRoNC4zMXY0LjEzaC4wN2MuNjUtMy4wOCwyLjA5LTQuNSw0LjUtNC41LjcsMCwxLjMuMTIsMS42NS4yNXY0LjE3Yy0uNDctLjEyLTEuMTgtLjIzLTEuODUtLjIzLTMuMTcsMC00LjI0LDIuMTgtNC4yNCw1Ljc1djkuNjhoLTQuNDVWMTIuOTRaIiBjbGFzcz0iY2xzLTMiLz48L3N2Zz4=;" vertex="1" parent="1">
          <mxGeometry x="490.86000000000007" y="1440.75" width="92.28" height="18.55" as="geometry" />
        </mxCell>
        <mxCell id="p3CoxOxOetRKkpcrqFFQ-19" value="" style="rounded=1;whiteSpace=wrap;html=1;strokeColor=#0070F2;fillColor=#EBF8FF;arcSize=32;absoluteArcSize=1;imageWidth=64;imageHeight=64;strokeWidth=1.5;" vertex="1" parent="1">
          <mxGeometry x="270" y="1410" width="180" height="80" as="geometry" />
        </mxCell>
        <mxCell id="p3CoxOxOetRKkpcrqFFQ-20" value="" style="rounded=1;whiteSpace=wrap;html=1;strokeColor=#0070F2;fillColor=#EBF8FF;arcSize=32;absoluteArcSize=1;imageWidth=64;imageHeight=64;strokeWidth=1.5;" vertex="1" parent="1">
          <mxGeometry x="-120" y="1410.01" width="180" height="80" as="geometry" />
        </mxCell>
        <mxCell id="p3CoxOxOetRKkpcrqFFQ-21" value="" style="shape=image;verticalLabelPosition=bottom;labelBackgroundColor=default;verticalAlign=top;aspect=fixed;imageAspect=0;image=data:image/svg+xml,PHN2ZyB4bWxuczp4bGluaz0iaHR0cDovL3d3dy53My5vcmcvMTk5OS94bGluayIgeG1sbnM9Imh0dHA6Ly93d3cudzMub3JnLzIwMDAvc3ZnIiB2aWV3Qm94PSIwIDAgMzMxLjQxIDM5LjgzIiBpZD0iTGF5b3V0Ij48ZGVmcz48c3R5bGU+LmNscy0xe2ZpbGw6dXJsKCNsaW5lYXItZ3JhZGllbnQpO30uY2xzLTEsLmNscy0ye2ZpbGwtcnVsZTpldmVub2RkO30uY2xzLTN7ZmlsbDojMDAyYTg2O30uY2xzLTJ7ZmlsbDojZmZmO308L3N0eWxlPjxsaW5lYXJHcmFkaWVudCBncmFkaWVudFVuaXRzPSJ1c2VyU3BhY2VPblVzZSIgeTI9IjM5LjgzIiB4Mj0iNDAuMjYiIHkxPSIwIiB4MT0iNDAuMjYiIGlkPSJsaW5lYXItZ3JhZGllbnQiPjxzdG9wIHN0b3AtY29sb3I9IiMwMGI4ZjEiIG9mZnNldD0iMCIvPjxzdG9wIHN0b3AtY29sb3I9IiMwMGI1ZWYiIG9mZnNldD0iLjAyIi8+PHN0b3Agc3RvcC1jb2xvcj0iIzBkOTBkOCIgb2Zmc2V0PSIuMzEiLz48c3RvcCBzdG9wLWNvbG9yPSIjMTY3NWM4IiBvZmZzZXQ9Ii41OCIvPjxzdG9wIHN0b3AtY29sb3I9IiMxYzY0YmUiIG9mZnNldD0iLjgyIi8+PHN0b3Agc3RvcC1jb2xvcj0iIzFlNWZiYiIgb2Zmc2V0PSIxIi8+PC9saW5lYXJHcmFkaWVudD48L2RlZnM+PHBvbHlsaW5lIHBvaW50cz0iMCAzOS44MyA0MC42OSAzOS44MyA4MC41MiAwIDAgMCAwIDM5LjgzIiBjbGFzcz0iY2xzLTEiLz48cGF0aCBkPSJtNDcuNzgsNy40OWgtNy45MnMwLDE4Ljg0LDAsMTguODRsLTYuOTItMTguODRoLTYuODZsLTUuOTEsMTUuNzZjLS42My0zLjk3LTQuNzQtNS4zNS03Ljk3LTYuMzctMi4xNC0uNjktNC40LTEuNjktNC4zOC0yLjgxLjAyLS45MiwxLjIyLTEuNzcsMy41OS0xLjY0LDEuNi4wOCwzLC4yMSw1LjgsMS41NmwyLjc1LTQuNzljLTIuNTYtMS4zLTYuMDktMi4xMi04Ljk4LTIuMTJoLS4wMmMtMy4zNywwLTYuMTgsMS4wOS03LjkzLDIuODktMS4yMSwxLjI2LTEuODcsMi44Ni0xLjksNC42Mi0uMDQsMi40My44NSw0LjE2LDIuNzIsNS41MywxLjU4LDEuMTYsMy42MSwxLjkxLDUuMzksMi40NywyLjIuNjgsNCwxLjI3LDMuOTgsMi41NC0uMDIuNDYtLjE5Ljg5LS41MiwxLjI0LS41NS41Ny0xLjM5Ljc4LTIuNTUuOC0yLjI0LjA1LTMuOTEtLjMtNi41Ni0xLjg3bC0yLjQ1LDQuODZjMi42NCwxLjUxLDUuNzgsMi4zOSw4Ljk3LDIuMzloLjQxYzIuNzgtLjA2LDUuMDMtLjg1LDYuODItMi4yOS4xLS4wOC4yLS4xNy4yOS0uMjVsLS44LDIuMTJoNy4ybDEuMjEtMy42N2MxLjI2LjQzLDIuNy42Nyw0LjIzLjY3czIuODktLjIzLDQuMTMtLjYzbDEuMTYsMy42NGgxMS43NHYtNy42MWgyLjU2YzYuMTksMCw5Ljg1LTMuMTUsOS44NS04LjQ0LDAtNS44OC0zLjU2LTguNTktMTEuMTMtOC41OVptLTE4LjMyLDE2LjEyYy0uOTIsMC0xLjc5LS4xNi0yLjU0LS40NGwyLjUxLTcuOTNoLjA1bDIuNDcsNy45NWMtLjc0LjI2LTEuNTkuNDItMi40OS40MlptMTguNzgtNC41NWgtMS43NXYtNi4zOWgxLjc1YzIuMzMsMCw0LjE4Ljc3LDQuMTgsMy4xNXMtMS44NiwzLjI0LTQuMTgsMy4yNCIgY2xhc3M9ImNscy0yIi8+PHBhdGggZD0ibTc4LjYxLDI4LjM5bDIuOTktMy4wMWMxLjUxLDEuOTcsMy42MiwzLjI5LDcuMTEsMy4yOSwyLjg1LDAsNS4wMS0uOTUsNS4wMS0zLjI3LDAtMi40NS0yLjUtMy4xNS01Ljg4LTMuOTgtMy44OS0uOTMtOC4xMS0yLjIyLTguMTEtNy4zOSwwLTQuODcsMy45OS03LDkuMTMtNyw0LjA1LDAsNi45NywxLjM0LDguODksMy41N2wtMi45LDIuOWMtMS41My0xLjc0LTMuNDMtMi42OS02LjE0LTIuNjktMy4wNiwwLTQuMzgsMS4yNy00LjM4LDIuOTYsMCwyLjIzLDIuMjcsMi44Myw1LjQsMy42Miw0LjE3Ljk4LDguNiwyLjE2LDguNiw3LjY1LDAsNC40NS0zLjMzLDcuNS05LjcxLDcuNS00LjY4LDAtNy45OS0xLjU3LTEwLjAxLTQuMTVaIiBjbGFzcz0iY2xzLTMiLz48cGF0aCBkPSJtMTAxLjY3LDI1LjYzdi0xMi42OGg0LjQ3djExLjYzYzAsMi41Ny44OCw0LjE1LDMuNDcsNC4xNXM0LjMxLTEuNzgsNC4zMS01LjAxdi0xMC43N2g0LjQzdjE5LjI1aC00LjI5di00LjA2aC0uMDljLS44OCwyLjIyLTIuNjIsNC40Mi02LjMyLDQuNDItNC4xMiwwLTUuOTgtMi44MS01Ljk4LTYuOTFaIiBjbGFzcz0iY2xzLTMiLz48cGF0aCBkPSJtMTIxLjgxLDIyLjU3YzAtNi40LDQuMDEtOS45OSw5LjY5LTkuOTksMy42NCwwLDYuMTYsMS40NCw3LjY5LDMuNTJsLTIuODUsMi41MmMtMS4xMS0xLjU1LTIuNTktMi40MS00LjY0LTIuNDEtMy4xMSwwLTUuMjMsMi4xMS01LjIzLDYuMzdzMi4xMSw2LjM3LDUuMjMsNi4zN2MyLjA0LDAsMy41Mi0uODgsNC42NC0yLjQzbDIuODUsMi41M2MtMS41MywyLjA4LTQuMDUsMy41LTcuNjksMy41LTUuNjgsMC05LjY5LTMuNTktOS42OS05Ljk4WiIgY2xhc3M9ImNscy0zIi8+PHBhdGggZD0ibTE0MC4yNiwyMi41N2MwLTYuNCw0LjAxLTkuOTksOS42OS05Ljk5LDMuNjQsMCw2LjE2LDEuNDQsNy42OSwzLjUybC0yLjg1LDIuNTJjLTEuMTEtMS41NS0yLjU5LTIuNDEtNC42NC0yLjQxLTMuMTEsMC01LjIzLDIuMTEtNS4yMyw2LjM3czIuMTEsNi4zNyw1LjIzLDYuMzdjMi4wNCwwLDMuNTItLjg4LDQuNjQtMi40M2wyLjg1LDIuNTNjLTEuNTMsMi4wOC00LjA1LDMuNS03LjY5LDMuNS01LjY4LDAtOS42OS0zLjU5LTkuNjktOS45OFoiIGNsYXNzPSJjbHMtMyIvPjxwYXRoIGQ9Im0xNTguNzEsMjIuNTdjMC02LjcsNC40Mi05Ljk5LDkuNjYtOS45OSw2LjQ0LDAsOC43Myw0LjcyLDguNzMsOS40LDAsLjU2LS4wNCwxLjE0LS4wNywxLjY5aC0xMy42MmMuMzIsMy42NiwyLjIyLDUuNCw1LjU2LDUuNCwyLjE2LDAsMy42MS0uNjMsNC45MS0yLjE1bDIuNTksMi41OWMtMS43OSwyLjAyLTMuOTksMy4wNC03LjcxLDMuMDQtNi4xOCwwLTEwLjA1LTMuNTQtMTAuMDUtOS45OFptMTMuOTUtMS42N2MtLjI1LTMuNC0xLjktNC44OS00LjQtNC44OXMtNC4zNCwxLjUtNC43OSw0Ljg5aDkuMThaIiBjbGFzcz0iY2xzLTMiLz48cGF0aCBkPSJtMTc4Ljc2LDI5LjU3bDIuNjctMi42N2MxLjUzLDEuNjksMy4xOCwyLjIyLDUuMjEsMi4yMnMzLjQ4LS41NiwzLjQ4LTIuMTVjMC0xLjc0LTEuNjQtMi4yMi00LjQtMi45NC0yLjk3LS43Ny02LjA3LTIuMDItNi4wNy01LjgyLDAtMy41NywyLjc1LTUuNjMsNy4zLTUuNjMsMi45NywwLDUuNDIuOTIsNy4xNCwyLjYybC0yLjYsMi42Yy0xLjMtMS4zNC0yLjktMS44My00LjQ3LTEuODMtMS44NSwwLTMuMDYuNjMtMy4wNiwyLjA0czEuNTcsMS44OCw0LjE3LDIuNTdjMy4wNC43Nyw2LjMyLDEuODMsNi4zMiw2LjA3LDAsMy43My0zLjAxLDUuODktNy43NCw1Ljg5LTMuMzYsMC02LjA5LS45NS03Ljk1LTIuOTdaIiBjbGFzcz0iY2xzLTMiLz48cGF0aCBkPSJtMTk2LjA3LDI5LjU3bDIuNjctMi42N2MxLjUzLDEuNjksMy4xOCwyLjIyLDUuMjEsMi4yMnMzLjQ4LS41NiwzLjQ4LTIuMTVjMC0xLjc0LTEuNjQtMi4yMi00LjQtMi45NC0yLjk3LS43Ny02LjA3LTIuMDItNi4wNy01LjgyLDAtMy41NywyLjc1LTUuNjMsNy4zLTUuNjMsMi45NywwLDUuNDIuOTIsNy4xNCwyLjYybC0yLjYsMi42Yy0xLjMtMS4zNC0yLjktMS44My00LjQ3LTEuODMtMS44NSwwLTMuMDYuNjMtMy4wNiwyLjA0czEuNTcsMS44OCw0LjE3LDIuNTdjMy4wNC43Nyw2LjMyLDEuODMsNi4zMiw2LjA3LDAsMy43My0zLjAxLDUuODktNy43NCw1Ljg5LTMuMzYsMC02LjA5LS45NS03Ljk1LTIuOTdaIiBjbGFzcz0iY2xzLTMiLz48cGF0aCBkPSJtMjE0LjYzLDcuNGgxNi4yN3Y0LjFoLTExLjU5djYuNzRoMTEuMTl2NC4wNmgtMTEuMTl2OS44OWgtNC42OFY3LjRaIiBjbGFzcz0iY2xzLTMiLz48cGF0aCBkPSJtMjMyLjU2LDI2Ljk1YzAtNC4xMywzLjM4LTYuMDcsOC4zOC02LjA3aDMuNDh2LTEuMTFjMC0yLjMyLTEuMTMtMy41OS0zLjQ3LTMuNTktMi4xOCwwLTMuNzEuOTMtNC45MSwyLjQ1bC0yLjY2LTIuNjRjMS43OC0xLjk0LDQuMTktMy40MSw4LjA0LTMuNDEsNC44OSwwLDcuNDIsMi41NSw3LjQyLDcuMjF2MTIuNGgtNC4yOXYtMy41N2gtLjExYy0xLjE4LDIuNjktMy4xMSwzLjkyLTYuMTQsMy45Mi0zLjM2LDAtNS43NS0yLjAxLTUuNzUtNS41OVptNy4zNCwyLjE2YzIuODcsMCw0LjUyLTIuMTYsNC41Mi00LjQzdi0xLjI1aC0yLjczYy0yLjU1LDAtNC43LjY5LTQuNywzLjEsMCwxLjYsMS4wOSwyLjU5LDIuOSwyLjU5WiIgY2xhc3M9ImNscy0zIi8+PHBhdGggZD0ibTI1MS4xMiwyMi41N2MwLTYuNCw0LjAxLTkuOTksOS42OS05Ljk5LDMuNjQsMCw2LjE2LDEuNDQsNy42OSwzLjUybC0yLjg1LDIuNTJjLTEuMTEtMS41NS0yLjU5LTIuNDEtNC42NC0yLjQxLTMuMTEsMC01LjIzLDIuMTEtNS4yMyw2LjM3czIuMTEsNi4zNyw1LjIzLDYuMzdjMi4wNCwwLDMuNTItLjg4LDQuNjQtMi40M2wyLjg1LDIuNTNjLTEuNTMsMi4wOC00LjA1LDMuNS03LjY5LDMuNS01LjY4LDAtOS42OS0zLjU5LTkuNjktOS45OFoiIGNsYXNzPSJjbHMtMyIvPjxwYXRoIGQ9Im0yNzIuMDMsMjcuMzl2LTExaC0yLjgxdi0yLjA0bDYuNDItNi40aC44NHY1aDQuMTd2My40NWgtNC4xN3YxMC4xM2MwLDEuNjkuNTUsMi4xNSwyLjA2LDIuMTUuNzYsMCwxLjQ4LS4xMiwyLjExLS4zdjMuODJjLS43Ny4xOS0xLjkyLjMyLTMuMDQuMzItMy44NywwLTUuNTgtMS40My01LjU4LTUuMTJaIiBjbGFzcz0iY2xzLTMiLz48cGF0aCBkPSJtMjgyLjE3LDIyLjU3YzAtNi4wNyw0LjA1LTkuOTksOS44LTkuOTlzOS44LDMuOTIsOS44LDkuOTktNC4wNSw5Ljk4LTkuOCw5Ljk4LTkuOC0zLjkxLTkuOC05Ljk4Wm0xNC45NCwwYzAtNC4xNS0yLjE1LTYuMzctNS4xNC02LjM3cy01LjE0LDIuMjItNS4xNCw2LjM3LDIuMTUsNi4zNyw1LjE0LDYuMzcsNS4xNC0yLjIzLDUuMTQtNi4zN1oiIGNsYXNzPSJjbHMtMyIvPjxwYXRoIGQ9Im0zMDQuNTUsMTIuOTRoNC4zMXY0LjEzaC4wN2MuNjUtMy4wOCwyLjA5LTQuNSw0LjUtNC41LjcsMCwxLjMuMTIsMS42NS4yNXY0LjE3Yy0uNDctLjEyLTEuMTgtLjIzLTEuODUtLjIzLTMuMTcsMC00LjI0LDIuMTgtNC4yNCw1Ljc1djkuNjhoLTQuNDVWMTIuOTRaIiBjbGFzcz0iY2xzLTMiLz48cGF0aCBkPSJtMzE1LjcxLDI5LjU3bDIuNjctMi42N2MxLjUzLDEuNjksMy4xOCwyLjIyLDUuMjEsMi4yMnMzLjQ4LS41NiwzLjQ4LTIuMTVjMC0xLjc0LTEuNjQtMi4yMi00LjQtMi45NC0yLjk3LS43Ny02LjA3LTIuMDItNi4wNy01LjgyLDAtMy41NywyLjc1LTUuNjMsNy4zLTUuNjMsMi45NywwLDUuNDIuOTIsNy4xNCwyLjYybC0yLjYsMi42Yy0xLjMtMS4zNC0yLjktMS44My00LjQ3LTEuODMtMS44NSwwLTMuMDYuNjMtMy4wNiwyLjA0czEuNTcsMS44OCw0LjE3LDIuNTdjMy4wNC43Nyw2LjMyLDEuODMsNi4zMiw2LjA3LDAsMy43My0zLjAxLDUuODktNy43NCw1Ljg5LTMuMzYsMC02LjA5LS45NS03Ljk1LTIuOTdaIiBjbGFzcz0iY2xzLTMiLz48L3N2Zz4=;" vertex="1" parent="1">
          <mxGeometry x="280" y="1440.73" width="153.51" height="18.55" as="geometry" />
        </mxCell>
        <mxCell id="p3CoxOxOetRKkpcrqFFQ-22" value="" style="shape=image;verticalLabelPosition=bottom;labelBackgroundColor=default;verticalAlign=top;aspect=fixed;imageAspect=0;image=data:image/svg+xml,PHN2ZyB4bWxuczp4bGluaz0iaHR0cDovL3d3dy53My5vcmcvMTk5OS94bGluayIgeG1sbnM9Imh0dHA6Ly93d3cudzMub3JnLzIwMDAvc3ZnIiB2aWV3Qm94PSIwIDAgMjI5LjQyNyAzOS44MzIiIGlkPSJhIj48ZGVmcz48bGluZWFyR3JhZGllbnQgZ3JhZGllbnRVbml0cz0idXNlclNwYWNlT25Vc2UiIHkyPSIzOS44MzIiIHgyPSI0MC4yNTgiIHkxPSIwIiB4MT0iNDAuMjU4IiBpZD0iYiI+PHN0b3Agc3RvcC1jb2xvcj0iIzAwYjhmMSIgb2Zmc2V0PSIwIi8+PHN0b3Agc3RvcC1jb2xvcj0iIzAwYjVlZiIgb2Zmc2V0PSIuMDE2Ii8+PHN0b3Agc3RvcC1jb2xvcj0iIzBkOTBkOCIgb2Zmc2V0PSIuMzA4Ii8+PHN0b3Agc3RvcC1jb2xvcj0iIzE2NzVjOCIgb2Zmc2V0PSIuNTc4Ii8+PHN0b3Agc3RvcC1jb2xvcj0iIzFjNjRiZSIgb2Zmc2V0PSIuODE3Ii8+PHN0b3Agc3RvcC1jb2xvcj0iIzFlNWZiYiIgb2Zmc2V0PSIxIi8+PC9saW5lYXJHcmFkaWVudD48L2RlZnM+PHBvbHlsaW5lIGZpbGwtcnVsZT0iZXZlbm9kZCIgZmlsbD0idXJsKCNiKSIgcG9pbnRzPSIwIDM5LjgzMiA0MC42OTIgMzkuODMyIDgwLjUxNyAwIDAgMCAwIDM5LjgzMiIvPjxwYXRoIGZpbGwtcnVsZT0iZXZlbm9kZCIgZmlsbD0iI2ZmZiIgZD0ibTQ3Ljc4Miw3LjQ4OWwtNy45MjUtLjAwNXYxOC44NDVsLTYuOTI0LTE4Ljg0NWgtNi44NjVsLTUuOTEyLDE1Ljc1OWMtLjYzLTMuOTczLTQuNzQtNS4zNDUtNy45NzQtNi4zNzQtMi4xMzUtLjY4Ni00LjQwMS0xLjY5NC00LjM4LTIuODA5LjAxNy0uOTE1LDEuMjE1LTEuNzY1LDMuNTg5LTEuNjM3LDEuNTk1LjA4NCwzLjAwMS4yMTMsNS44LDEuNTYzbDIuNzUzLTQuNzk1Yy0yLjU1NS0xLjMtNi4wODYtMi4xMjEtOC45NzgtMi4xMjRoLS4wMTdjLTMuMzc0LDAtNi4xODUsMS4wOTMtNy45MjgsMi44OTQtMS4yMTQsMS4yNTgtMS44NjksMi44NTYtMS44OTYsNC42MjMtLjA0NCwyLjQzMi44NDgsNC4xNTcsMi43MjEsNS41MzMsMS41ODMsMS4xNiwzLjYwNiwxLjkxMiw1LjM5LDIuNDY1LDIuMjAxLjY4MSwzLjk5NiwxLjI3NCwzLjk3NSwyLjUzOS0uMDE2LjQ1OS0uMTkxLjg4OC0uNTIxLDEuMjM2LS41NDguNTY2LTEuMzkxLjc3OS0yLjU1NS43OTktMi4yNDQuMDQ4LTMuOTEtLjMwMy02LjU2Mi0xLjg3bC0yLjQ0OCw0Ljg2MWMyLjY0NCwxLjUwNiw1Ljc3NiwyLjM4OCw4Ljk3MiwyLjM4OGwuNDExLS4wMDZjMi43ODItLjA1LDUuMDI2LS44NDIsNi44Mi0yLjI4Ni4xMDMtLjA4MS4xOTYtLjE2Ni4yOTEtLjI1bC0uNzk1LDIuMTIzaDcuMmwxLjIwOC0zLjY3NGMxLjI2NS40MzMsMi43MDQuNjcxLDQuMjMyLjY3MSwxLjQ4NywwLDIuODg5LS4yMjksNC4xMzEtLjYzNWwxLjE2NCwzLjYzN2gxMS43NDJ2LTcuNjA3aDIuNTYxYzYuMTg4LDAsOS44NTEtMy4xNTQsOS44NTEtOC40MzYsMC01Ljg4NS0zLjU1Ny04LjU4NS0xMS4xMzItOC41ODVabS0xOC4zMTcsMTYuMTI0Yy0uOTI1LDAtMS43OTItLjE2LTIuNTM5LS40NDNsMi41MTItNy45MjZoLjA0OGwyLjQ2OCw3Ljk0OGMtLjc0Mi4yNjMtMS41ODkuNDIxLTIuNDg4LjQyMVptMTguNzgzLTQuNTUzaC0xLjc0NnYtNi4zODZoMS43NDZjMi4zMjgsMCw0LjE4NS43NzMsNC4xODUsMy4xNTEsMCwyLjQ2MS0xLjg1NywzLjIzNi00LjE4NSwzLjIzNiIvPjxwYXRoIGZpbGw9IiMwMDJhODYiIGQ9Im03OC42MDUsMjguMzlsMi45OTEtMy4wMDhjMS41MTMsMS45NywzLjYyNCwzLjI5LDcuMTA3LDMuMjksMi44NSwwLDUuMDE0LS45NSw1LjAxNC0zLjI3MiwwLTIuNDQ1LTIuNDk4LTMuMTQ5LTUuODc2LTMuOTc2LTMuODg4LS45MzMtOC4xMTEtMi4yMTctOC4xMTEtNy4zODksMC00Ljg3NCwzLjk5NC03LjAwMiw5LjEzMS03LjAwMiw0LjA0NiwwLDYuOTY3LDEuMzM3LDguODg1LDMuNTcybC0yLjkwMywyLjkwM2MtMS41My0xLjc0Mi0zLjQzMS0yLjY5Mi02LjE0LTIuNjkyLTMuMDYxLDAtNC4zODEsMS4yNjctNC4zODEsMi45NTYsMCwyLjIzNCwyLjI3LDIuODMzLDUuNDAxLDMuNjI1LDQuMTcuOTg1LDguNjA0LDIuMTY0LDguNjA0LDcuNjUzLDAsNC40NTEtMy4zMjUsNy40OTUtOS43MTEsNy40OTUtNC42OCwwLTcuOTg3LTEuNTY2LTEwLjAxMS00LjE1MloiLz48cGF0aCBmaWxsPSIjMDAyYTg2IiBkPSJtMTA5Ljk0LDYuMjc1aDMuODdsLTEwLjg1NCwyNy4wNDFoLTMuODcxbDEwLjg1NS0yNy4wNDFaIi8+PHBhdGggZmlsbD0iIzAwMmE4NiIgZD0ibTEyMy40NTYsMjcuMjk5aC0xMS4zNjV2LTMuNjc3bDEwLjgxOS0xNi4yMjFoNC43MTV2MTYuMjU2aDMuMzA4djMuNjQyaC0zLjMwOHY0Ljg5MWgtNC4xNjl2LTQuODkxWm0wLTMuNjQydi04LjA0YzAtLjk4NSwwLTIuMTgyLjA3LTMuMjItLjMzNS42MTYtLjg5NywxLjQ3OC0xLjI2NywyLjA3NmwtNS4wNjcsNy42Yy0uMjk5LjQ0LS43OTIsMS4xNzktMS4wOTEsMS41ODNoNy4zNTRaIi8+PHBhdGggZmlsbD0iIzAwMmE4NiIgZD0ibTEzNC4xMjQsNy40MDFoNC42OHY5LjgxN2gxMC45NzlWNy40MDFoNC42OTd2MjQuNzg5aC00LjY5N3YtMTAuNjYyaC0xMC45Nzl2MTAuNjYyaC00LjY4VjcuNDAxWiIvPjxwYXRoIGZpbGw9IiMwMDJhODYiIGQ9Im0xNjUuODUsNy40MDFoNS40NzJsOS4wOTYsMjQuNzg5aC00LjgwM2wtMi4wMjMtNi4wMzVoLTEwLjExNmwtMi4wMjMsNi4wMzVoLTQuNjhsOS4wNzgtMjQuNzg5Wm02LjQ3NSwxNC45NzJsLTIuNTMzLTcuNTY1Yy0uNDIzLTEuMjMxLTEuMDAzLTIuOTAzLTEuMjY4LTMuODE4LS4yNjQuOTE1LS44MDksMi41ODYtMS4yMzEsMy44MThsLTIuNTMzLDcuNTY1aDcuNTY1WiIvPjxwYXRoIGZpbGw9IiMwMDJhODYiIGQ9Im0xODIuNjkzLDcuNDAxaDUuNTA3bDExLjIwNywxOS41NDZjLS4wODgtMS4wMDMtLjE1OC0zLjI1NS0uMTU4LTUuNDU0VjcuNDAxaDQuMjR2MjQuNzg5aC01LjY0N2wtMTEuMDY2LTE5LjNjLjA4OCwxLjAwMy4xNTgsMy4yMzcuMTU4LDUuNDU0djEzLjg0NmgtNC4yNFY3LjQwMVoiLz48cGF0aCBmaWxsPSIjMDAyYTg2IiBkPSJtMjE0Ljg1OSw3LjQwMWg1LjQ3Mmw5LjA5NiwyNC43ODloLTQuODAzbC0yLjAyMy02LjAzNWgtMTAuMTE2bC0yLjAyMyw2LjAzNWgtNC42OGw5LjA3OC0yNC43ODlabTYuNDc1LDE0Ljk3MmwtMi41MzMtNy41NjVjLS40MjMtMS4yMzEtMS4wMDMtMi45MDMtMS4yNjgtMy44MTgtLjI2NC45MTUtLjgwOSwyLjU4Ni0xLjIzMSwzLjgxOGwtMi41MzMsNy41NjVoNy41NjVaIi8+PC9zdmc+;" vertex="1" parent="1">
          <mxGeometry x="116.91" y="1908.22" width="106.19" height="18.55" as="geometry" />
        </mxCell>
        <mxCell id="p3CoxOxOetRKkpcrqFFQ-23" value="" style="shape=image;verticalLabelPosition=bottom;labelBackgroundColor=default;verticalAlign=top;aspect=fixed;imageAspect=0;image=data:image/svg+xml,PHN2ZyB4bWxuczp4bGluaz0iaHR0cDovL3d3dy53My5vcmcvMTk5OS94bGluayIgeG1sbnM9Imh0dHA6Ly93d3cudzMub3JnLzIwMDAvc3ZnIiB2aWV3Qm94PSIwIDAgNDEyLjM4IDIwNCIgZGF0YS1uYW1lPSJMYXllciAxIiBpZD0iTGF5ZXJfMSI+PGRlZnM+PHN0eWxlPi5jbHMtMSwuY2xzLTJ7ZmlsbC1ydWxlOmV2ZW5vZGQ7fS5jbHMtMXtmaWxsOnVybCgjbGluZWFyLWdyYWRpZW50KTt9LmNscy0ye2ZpbGw6I2ZmZjt9PC9zdHlsZT48bGluZWFyR3JhZGllbnQgZ3JhZGllbnRVbml0cz0idXNlclNwYWNlT25Vc2UiIHkyPSIyMDQiIHgyPSIyMDYuMTkiIHgxPSIyMDYuMTkiIGlkPSJsaW5lYXItZ3JhZGllbnQiPjxzdG9wIHN0b3AtY29sb3I9IiMwMGI4ZjEiIG9mZnNldD0iMCIvPjxzdG9wIHN0b3AtY29sb3I9IiMwMWI2ZjAiIG9mZnNldD0iMC4wMiIvPjxzdG9wIHN0b3AtY29sb3I9IiMwZDkwZDkiIG9mZnNldD0iMC4zMSIvPjxzdG9wIHN0b3AtY29sb3I9IiMxNzc1YzgiIG9mZnNldD0iMC41OCIvPjxzdG9wIHN0b3AtY29sb3I9IiMxYzY1YmYiIG9mZnNldD0iMC44MiIvPjxzdG9wIHN0b3AtY29sb3I9IiMxZTVmYmIiIG9mZnNldD0iMSIvPjwvbGluZWFyR3JhZGllbnQ+PC9kZWZzPjx0aXRsZT5TQVBfZ3JhZF9SX3Njcm5fWmVpY2hlbmZsw6RjaGUgMTwvdGl0bGU+PHBvbHlsaW5lIHBvaW50cz0iMCAyMDQgMjA4LjQxIDIwNCA0MTIuMzggMCAwIDAgMCAyMDQiIGNsYXNzPSJjbHMtMSIvPjxwYXRoIGQ9Ik0yNDQuNzMsMzguMzZsLTQwLjYsMHY5Ni41MkwxNjguNjcsMzguMzNIMTMzLjUxbC0zMC4yNyw4MC43MkMxMDAsOTguNyw3OSw5MS42Nyw2Mi40LDg2LjQsNTEuNDYsODIuODksMzkuODUsNzcuNzIsNDAsNzJjLjA5LTQuNjgsNi4yMy05LDE4LjM4LTguMzgsOC4xNy40MywxNS4zNywxLjA5LDI5LjcxLDhsMTQuMS0yNC41NUM4OS4wNiw0MC40Miw3MSwzNi4yMSw1Ni4xNywzNi4xOWgtLjA5Yy0xNy4yOCwwLTMxLjY4LDUuNi00MC42LDE0LjgzQTM0LjIzLDM0LjIzLDAsMCwwLDUuNzcsNzQuN0M1LjU0LDg3LjE1LDEwLjExLDk2LDE5LjcxLDEwM2M4LjEsNS45NCwxOC40Niw5Ljc5LDI3LjYsMTIuNjIsMTEuMjcsMy40OSwyMC40Nyw2LjUzLDIwLjM2LDEzQTkuNTcsOS41NywwLDAsMSw2NSwxMzVjLTIuODEsMi45LTcuMTMsNC0xMy4wOSw0LjEtMTEuNDkuMjQtMjAtMS41Ni0zMy42MS05LjU5TDUuNzcsMTU0LjQyYTkzLjc3LDkzLjc3LDAsMCwwLDQ2LDEyLjIybDIuMTEsMGMxNC4yNC0uMjUsMjUuNzQtNC4zMSwzNC45Mi0xMS43MS41My0uNDEsMS0uODQsMS40OS0xLjI4TDg2LjE3LDE2NC41SDEyM2w2LjE5LTE4LjgyYTY3LjQ2LDY3LjQ2LDAsMCwwLDIxLjY4LDMuNDMsNjguMzMsNjguMzMsMCwwLDAsMjEuMTYtMy4yNWw2LDE4LjY0aDYwLjE0di0zOWgxMy4xMWMzMS43MSwwLDUwLjQ2LTE2LjE1LDUwLjQ2LTQzLjJDMzAxLjc0LDUyLjE5LDI4My41MiwzOC4zNiwyNDQuNzMsMzguMzZaTTE1MC45MSwxMjFhMzYuOTMsMzYuOTMsMCwwLDEtMTMtMi4yOGwxMi44Ny00MC41OUgxNTFsMTIuNjUsNDAuNzFBMzguNSwzOC41LDAsMCwxLDE1MC45MSwxMjFabTk2LjItMjMuMzNoLTguOTRWNjQuOTFoOC45NGMxMS45MywwLDIxLjQ0LDQsMjEuNDQsMTYuMTQsMCwxMi42LTkuNTEsMTYuNTctMjEuNDQsMTYuNTciIGNsYXNzPSJjbHMtMiIvPjwvc3ZnPg==;" vertex="1" parent="1">
          <mxGeometry x="-108" y="1440.74" width="37.46" height="18.55" as="geometry" />
        </mxCell>
        <mxCell id="p3CoxOxOetRKkpcrqFFQ-24" value="&lt;font color=&quot;#082a86&quot; style=&quot;font-size: 15px;&quot;&gt;Integrated&lt;/font&gt;&lt;div&gt;&lt;font color=&quot;#082a86&quot; style=&quot;font-size: 15px;&quot;&gt;Business&lt;/font&gt;&lt;/div&gt;&lt;div&gt;&lt;font color=&quot;#082a86&quot; style=&quot;font-size: 15px;&quot;&gt;Planning&lt;/font&gt;&lt;/div&gt;" style="text;strokeColor=none;fillColor=none;html=1;align=center;verticalAlign=middle;whiteSpace=wrap;rounded=0;fontSize=20;spacing=0;" vertex="1" parent="1">
          <mxGeometry x="-70.54" y="1435" width="113.5" height="30" as="geometry" />
        </mxCell>
        <mxCell id="p3CoxOxOetRKkpcrqFFQ-25" value="" style="rounded=1;whiteSpace=wrap;html=1;strokeColor=#0070F2;fillColor=#EBF8FF;arcSize=32;absoluteArcSize=1;imageWidth=64;imageHeight=64;strokeWidth=1.5;" vertex="1" parent="1">
          <mxGeometry x="-315" y="1410" width="180" height="80" as="geometry" />
        </mxCell>
        <mxCell id="p3CoxOxOetRKkpcrqFFQ-26" value="" style="shape=image;verticalLabelPosition=bottom;labelBackgroundColor=default;verticalAlign=top;aspect=fixed;imageAspect=0;image=data:image/svg+xml,PHN2ZyB4bWxuczp4bGluaz0iaHR0cDovL3d3dy53My5vcmcvMTk5OS94bGluayIgeG1sbnM9Imh0dHA6Ly93d3cudzMub3JnLzIwMDAvc3ZnIiB2aWV3Qm94PSIwIDAgNDEyLjM4IDIwNCIgZGF0YS1uYW1lPSJMYXllciAxIiBpZD0iTGF5ZXJfMSI+PGRlZnM+PHN0eWxlPi5jbHMtMSwuY2xzLTJ7ZmlsbC1ydWxlOmV2ZW5vZGQ7fS5jbHMtMXtmaWxsOnVybCgjbGluZWFyLWdyYWRpZW50KTt9LmNscy0ye2ZpbGw6I2ZmZjt9PC9zdHlsZT48bGluZWFyR3JhZGllbnQgZ3JhZGllbnRVbml0cz0idXNlclNwYWNlT25Vc2UiIHkyPSIyMDQiIHgyPSIyMDYuMTkiIHgxPSIyMDYuMTkiIGlkPSJsaW5lYXItZ3JhZGllbnQiPjxzdG9wIHN0b3AtY29sb3I9IiMwMGI4ZjEiIG9mZnNldD0iMCIvPjxzdG9wIHN0b3AtY29sb3I9IiMwMWI2ZjAiIG9mZnNldD0iMC4wMiIvPjxzdG9wIHN0b3AtY29sb3I9IiMwZDkwZDkiIG9mZnNldD0iMC4zMSIvPjxzdG9wIHN0b3AtY29sb3I9IiMxNzc1YzgiIG9mZnNldD0iMC41OCIvPjxzdG9wIHN0b3AtY29sb3I9IiMxYzY1YmYiIG9mZnNldD0iMC44MiIvPjxzdG9wIHN0b3AtY29sb3I9IiMxZTVmYmIiIG9mZnNldD0iMSIvPjwvbGluZWFyR3JhZGllbnQ+PC9kZWZzPjx0aXRsZT5TQVBfZ3JhZF9SX3Njcm5fWmVpY2hlbmZsw6RjaGUgMTwvdGl0bGU+PHBvbHlsaW5lIHBvaW50cz0iMCAyMDQgMjA4LjQxIDIwNCA0MTIuMzggMCAwIDAgMCAyMDQiIGNsYXNzPSJjbHMtMSIvPjxwYXRoIGQ9Ik0yNDQuNzMsMzguMzZsLTQwLjYsMHY5Ni41MkwxNjguNjcsMzguMzNIMTMzLjUxbC0zMC4yNyw4MC43MkMxMDAsOTguNyw3OSw5MS42Nyw2Mi40LDg2LjQsNTEuNDYsODIuODksMzkuODUsNzcuNzIsNDAsNzJjLjA5LTQuNjgsNi4yMy05LDE4LjM4LTguMzgsOC4xNy40MywxNS4zNywxLjA5LDI5LjcxLDhsMTQuMS0yNC41NUM4OS4wNiw0MC40Miw3MSwzNi4yMSw1Ni4xNywzNi4xOWgtLjA5Yy0xNy4yOCwwLTMxLjY4LDUuNi00MC42LDE0LjgzQTM0LjIzLDM0LjIzLDAsMCwwLDUuNzcsNzQuN0M1LjU0LDg3LjE1LDEwLjExLDk2LDE5LjcxLDEwM2M4LjEsNS45NCwxOC40Niw5Ljc5LDI3LjYsMTIuNjIsMTEuMjcsMy40OSwyMC40Nyw2LjUzLDIwLjM2LDEzQTkuNTcsOS41NywwLDAsMSw2NSwxMzVjLTIuODEsMi45LTcuMTMsNC0xMy4wOSw0LjEtMTEuNDkuMjQtMjAtMS41Ni0zMy42MS05LjU5TDUuNzcsMTU0LjQyYTkzLjc3LDkzLjc3LDAsMCwwLDQ2LDEyLjIybDIuMTEsMGMxNC4yNC0uMjUsMjUuNzQtNC4zMSwzNC45Mi0xMS43MS41My0uNDEsMS0uODQsMS40OS0xLjI4TDg2LjE3LDE2NC41SDEyM2w2LjE5LTE4LjgyYTY3LjQ2LDY3LjQ2LDAsMCwwLDIxLjY4LDMuNDMsNjguMzMsNjguMzMsMCwwLDAsMjEuMTYtMy4yNWw2LDE4LjY0aDYwLjE0di0zOWgxMy4xMWMzMS43MSwwLDUwLjQ2LTE2LjE1LDUwLjQ2LTQzLjJDMzAxLjc0LDUyLjE5LDI4My41MiwzOC4zNiwyNDQuNzMsMzguMzZaTTE1MC45MSwxMjFhMzYuOTMsMzYuOTMsMCwwLDEtMTMtMi4yOGwxMi44Ny00MC41OUgxNTFsMTIuNjUsNDAuNzFBMzguNSwzOC41LDAsMCwxLDE1MC45MSwxMjFabTk2LjItMjMuMzNoLTguOTRWNjQuOTFoOC45NGMxMS45MywwLDIxLjQ0LDQsMjEuNDQsMTYuMTQsMCwxMi42LTkuNTEsMTYuNTctMjEuNDQsMTYuNTciIGNsYXNzPSJjbHMtMiIvPjwvc3ZnPg==;" vertex="1" parent="1">
          <mxGeometry x="-303" y="1440.73" width="37.46" height="18.55" as="geometry" />
        </mxCell>
        <mxCell id="p3CoxOxOetRKkpcrqFFQ-27" value="&lt;span style=&quot;font-size: 15px;&quot;&gt;&lt;font color=&quot;#082a86&quot;&gt;Analytics&lt;/font&gt;&lt;/span&gt;&lt;div&gt;&lt;span style=&quot;font-size: 15px;&quot;&gt;&lt;font color=&quot;#082a86&quot;&gt;Cloud&lt;/font&gt;&lt;/span&gt;&lt;/div&gt;" style="text;strokeColor=none;fillColor=none;html=1;align=center;verticalAlign=middle;whiteSpace=wrap;rounded=0;fontSize=20;spacing=0;" vertex="1" parent="1">
          <mxGeometry x="-245.32" y="1435" width="80" height="30" as="geometry" />
        </mxCell>
        <mxCell id="p3CoxOxOetRKkpcrqFFQ-28" value="" style="verticalLabelPosition=bottom;html=1;verticalAlign=top;align=center;strokeColor=none;fillColor=#00BEF2;shape=mxgraph.azure.azure_instance;" vertex="1" parent="1">
          <mxGeometry x="-399.27" y="1831" width="50" height="50" as="geometry" />
        </mxCell>
        <mxCell id="p3CoxOxOetRKkpcrqFFQ-29" value="" style="rounded=1;whiteSpace=wrap;html=1;strokeColor=#0070F2;fillColor=#EBF8FF;arcSize=32;absoluteArcSize=1;imageWidth=64;imageHeight=64;strokeWidth=1.5;" vertex="1" parent="1">
          <mxGeometry x="75.32" y="1410" width="180" height="80" as="geometry" />
        </mxCell>
        <mxCell id="p3CoxOxOetRKkpcrqFFQ-30" value="" style="shape=image;verticalLabelPosition=bottom;labelBackgroundColor=default;verticalAlign=top;aspect=fixed;imageAspect=0;image=data:image/svg+xml,PHN2ZyB4bWxuczp4bGluaz0iaHR0cDovL3d3dy53My5vcmcvMTk5OS94bGluayIgeG1sbnM9Imh0dHA6Ly93d3cudzMub3JnLzIwMDAvc3ZnIiB2aWV3Qm94PSIwIDAgMTYyLjY4IDM5LjgzMiIgaWQ9ImEiPjxkZWZzPjxsaW5lYXJHcmFkaWVudCBncmFkaWVudFVuaXRzPSJ1c2VyU3BhY2VPblVzZSIgeTI9IjM5LjgzMiIgeDI9IjQwLjI1OCIgeTE9IjAiIHgxPSI0MC4yNTgiIGlkPSJiIj48c3RvcCBzdG9wLWNvbG9yPSIjMDBiOGYxIiBvZmZzZXQ9IjAiLz48c3RvcCBzdG9wLWNvbG9yPSIjMDBiNWVmIiBvZmZzZXQ9Ii4wMTYiLz48c3RvcCBzdG9wLWNvbG9yPSIjMGQ5MGQ4IiBvZmZzZXQ9Ii4zMDgiLz48c3RvcCBzdG9wLWNvbG9yPSIjMTY3NWM4IiBvZmZzZXQ9Ii41NzgiLz48c3RvcCBzdG9wLWNvbG9yPSIjMWM2NGJlIiBvZmZzZXQ9Ii44MTciLz48c3RvcCBzdG9wLWNvbG9yPSIjMWU1ZmJiIiBvZmZzZXQ9IjEiLz48L2xpbmVhckdyYWRpZW50PjwvZGVmcz48cG9seWxpbmUgZmlsbC1ydWxlPSJldmVub2RkIiBmaWxsPSJ1cmwoI2IpIiBwb2ludHM9IjAgMzkuODMyIDQwLjY5MiAzOS44MzIgODAuNTE3IDAgMCAwIDAgMzkuODMyIi8+PHBhdGggZmlsbC1ydWxlPSJldmVub2RkIiBmaWxsPSIjZmZmIiBkPSJtNDcuNzgyLDcuNDg5bC03LjkyNS0uMDA1djE4Ljg0NWwtNi45MjQtMTguODQ1aC02Ljg2NWwtNS45MTIsMTUuNzU5Yy0uNjMtMy45NzMtNC43NC01LjM0NS03Ljk3NC02LjM3NC0yLjEzNS0uNjg2LTQuNDAxLTEuNjk0LTQuMzgtMi44MDkuMDE3LS45MTUsMS4yMTUtMS43NjUsMy41ODktMS42MzcsMS41OTUuMDg0LDMuMDAxLjIxMyw1LjgsMS41NjNsMi43NTMtNC43OTVjLTIuNTU1LTEuMy02LjA4Ni0yLjEyMS04Ljk3OC0yLjEyNGgtLjAxN2MtMy4zNzQsMC02LjE4NSwxLjA5My03LjkyOCwyLjg5NC0xLjIxNCwxLjI1OC0xLjg2OSwyLjg1Ni0xLjg5Niw0LjYyMy0uMDQ0LDIuNDMyLjg0OCw0LjE1NywyLjcyMSw1LjUzMywxLjU4MywxLjE2LDMuNjA2LDEuOTEyLDUuMzksMi40NjUsMi4yMDEuNjgxLDMuOTk2LDEuMjc0LDMuOTc1LDIuNTM5LS4wMTYuNDU5LS4xOTEuODg4LS41MjEsMS4yMzYtLjU0OC41NjYtMS4zOTEuNzc5LTIuNTU1Ljc5OS0yLjI0NC4wNDgtMy45MS0uMzAzLTYuNTYyLTEuODdsLTIuNDQ4LDQuODYxYzIuNjQ0LDEuNTA2LDUuNzc2LDIuMzg4LDguOTcyLDIuMzg4bC40MTEtLjAwNmMyLjc4Mi0uMDUsNS4wMjYtLjg0Miw2LjgyLTIuMjg2LjEwMy0uMDgxLjE5Ni0uMTY2LjI5MS0uMjVsLS43OTUsMi4xMjNoNy4ybDEuMjA4LTMuNjc0YzEuMjY1LjQzMywyLjcwNC42NzEsNC4yMzIuNjcxLDEuNDg3LDAsMi44ODktLjIyOSw0LjEzMS0uNjM1bDEuMTY0LDMuNjM3aDExLjc0MnYtNy42MDdoMi41NjFjNi4xODgsMCw5Ljg1MS0zLjE1NCw5Ljg1MS04LjQzNiwwLTUuODg1LTMuNTU3LTguNTg1LTExLjEzMi04LjU4NVptLTE4LjMxNywxNi4xMjRjLS45MjUsMC0xLjc5Mi0uMTYtMi41MzktLjQ0M2wyLjUxMi03LjkyNmguMDQ4bDIuNDY4LDcuOTQ4Yy0uNzQyLjI2My0xLjU4OS40MjEtMi40ODguNDIxWm0xOC43ODMtNC41NTNoLTEuNzQ2di02LjM4NmgxLjc0NmMyLjMyOCwwLDQuMTg1Ljc3Myw0LjE4NSwzLjE1MSwwLDIuNDYxLTEuODU3LDMuMjM2LTQuMTg1LDMuMjM2Ii8+PHBhdGggZmlsbD0iIzAwMmE4NiIgZD0ibTg2Ljk5Nyw3LjQwMWg1LjQ3Mmw5LjA5NiwyNC43ODloLTQuODAzbC0yLjAyMy02LjAzNWgtMTAuMTE2bC0yLjAyMyw2LjAzNWgtNC42OGw5LjA3OC0yNC43ODlabTYuNDc1LDE0Ljk3MmwtMi41MzMtNy41NjVjLS40MjMtMS4yMzEtMS4wMDMtMi45MDMtMS4yNjgtMy44MTgtLjI2NC45MTUtLjgwOSwyLjU4Ni0xLjIzMSwzLjgxOGwtMi41MzQsNy41NjVoNy41NjVaIi8+PHBhdGggZmlsbD0iIzAwMmE4NiIgZD0ibTEwMy4zNDIsMTIuOTQzaDQuMzExdjQuMTM0aC4wN2MuNjUxLTMuMDc5LDIuMDk0LTQuNTA0LDQuNTA0LTQuNTA0LjcwNCwwLDEuMzAyLjEyMywxLjY1My4yNDd2NC4xNjljLS40NzUtLjEyMy0xLjE3OS0uMjI5LTEuODQ3LS4yMjktMy4xNjcsMC00LjI0LDIuMTgxLTQuMjQsNS43NTN2OS42NzZoLTQuNDUxVjEyLjk0M1oiLz48cGF0aCBmaWxsPSIjMDAyYTg2IiBkPSJtMTE1LjkwNyw3LjU3N2MwLTEuNTQ4LDEuMTA4LTIuNjIxLDIuNjU2LTIuNjIxczIuNjc0LDEuMDczLDIuNjc0LDIuNjIxLTEuMTI2LDIuNjA0LTIuNjc0LDIuNjA0LTIuNjU2LTEuMDU2LTIuNjU2LTIuNjA0Wm0uNDM5LDUuMzY2aDQuNDUxdjE5LjI0N2gtNC40NTFWMTIuOTQzWiIvPjxwYXRoIGZpbGw9IiMwMDJhODYiIGQ9Im0xMjkuNjQsMjguMjMyaC0uMDUzdjMuOTU4aC00LjMxMVY1Ljk1OGg0LjQ1MXYxMC44MDNoLjA4OGMuOTE1LTIuMTgyLDMuMDYyLTQuMTg4LDYuNzkxLTQuMTg4LDQuOTk3LDAsOC4wMDUsMy45OTQsOC4wMDUsOS45OTMsMCw2LjE5My0zLjI3Miw5Ljk3Ni04LjE2Myw5Ljk3Ni00LjA2NCwwLTUuODc2LTIuMDk0LTYuODA5LTQuMzExWm0xMC4zMS01LjY2NWMwLTQuMTUyLTIuMTQ2LTYuMzY5LTUuMTM3LTYuMzY5cy01LjEyLDIuMjE3LTUuMTIsNi4zNjksMi4xMjksNi4zNjksNS4xMiw2LjM2OSw1LjEzNy0yLjIzNCw1LjEzNy02LjM2OVoiLz48cGF0aCBmaWxsPSIjMDAyYTg2IiBkPSJtMTQ2LjM4OSwyNi45NDhjMC00LjEzNSwzLjM3OC02LjA3LDguMzc1LTYuMDdoMy40ODN2LTEuMTA4YzAtMi4zMjItMS4xMjYtMy41ODktMy40NjYtMy41ODktMi4xODIsMC0zLjcxMy45MzItNC45MDksMi40NDVsLTIuNjU2LTIuNjM5YzEuNzc2LTEuOTM1LDQuMTg3LTMuNDEzLDguMDQtMy40MTMsNC44OTEsMCw3LjQyNSwyLjU1MSw3LjQyNSw3LjIxM3YxMi40MDNoLTQuMjkzdi0zLjU3MWgtLjEwNWMtMS4xNzksMi42OTEtMy4xMTQsMy45MjMtNi4xNDEsMy45MjMtMy4zNiwwLTUuNzUyLTIuMDA2LTUuNzUyLTUuNTk1Wm03LjMzNiwyLjE2NGMyLjg2NywwLDQuNTIxLTIuMTY0LDQuNTIxLTQuNDM0di0xLjI1aC0yLjcyOGMtMi41NTEsMC00LjY5Ny42ODctNC42OTcsMy4wOTcsMCwxLjYwMSwxLjA5MSwyLjU4NiwyLjkwMywyLjU4NloiLz48L3N2Zz4=;" vertex="1" parent="1">
          <mxGeometry x="101.18" y="1440.73" width="75.6" height="18.55" as="geometry" />
        </mxCell>
        <mxCell id="p3CoxOxOetRKkpcrqFFQ-31" style="edgeStyle=orthogonalEdgeStyle;rounded=0;orthogonalLoop=1;jettySize=auto;html=1;endArrow=block;endFill=1;strokeColor=#354c5f;strokeWidth=1.5;fontSize=16;startSize=14;endSize=14;sourcePerimeterSpacing=8;targetPerimeterSpacing=8;curved=1;exitX=1;exitY=0.5;exitDx=0;exitDy=0;" edge="1" parent="1" source="p3CoxOxOetRKkpcrqFFQ-33">
          <mxGeometry relative="1" as="geometry">
            <mxPoint x="70" y="1976" as="targetPoint" />
          </mxGeometry>
        </mxCell>
        <mxCell id="p3CoxOxOetRKkpcrqFFQ-32" style="edgeStyle=orthogonalEdgeStyle;rounded=0;orthogonalLoop=1;jettySize=auto;html=1;exitX=0;exitY=0.5;exitDx=0;exitDy=0;endArrow=none;endFill=0;strokeColor=#354c5f;strokeWidth=1.5;fontSize=16;startSize=14;endSize=14;sourcePerimeterSpacing=8;targetPerimeterSpacing=8;curved=1;" edge="1" parent="1" source="p3CoxOxOetRKkpcrqFFQ-33">
          <mxGeometry relative="1" as="geometry">
            <mxPoint x="-150" y="1976" as="targetPoint" />
          </mxGeometry>
        </mxCell>
        <mxCell id="p3CoxOxOetRKkpcrqFFQ-33" value="&lt;font size=&quot;1&quot; color=&quot;#f5f6f7&quot;&gt;&lt;b style=&quot;&quot;&gt;Express&lt;/b&gt;&lt;/font&gt;&lt;div&gt;&lt;font size=&quot;1&quot; color=&quot;#f5f6f7&quot;&gt;&lt;b style=&quot;&quot;&gt;Tunnel&lt;/b&gt;&lt;/font&gt;&lt;/div&gt;" style="rounded=1;whiteSpace=wrap;html=1;arcSize=50;strokeColor=none;fillColor=#354b5f;strokeWidth=1.5;" vertex="1" parent="1">
          <mxGeometry x="-82.73" y="1962" width="74.16" height="28" as="geometry" />
        </mxCell>
        <mxCell id="p3CoxOxOetRKkpcrqFFQ-34" style="edgeStyle=orthogonalEdgeStyle;rounded=0;orthogonalLoop=1;jettySize=auto;html=1;fontSize=18;strokeColor=#475E75;fontFamily=Helvetica;fontColor=default;targetPerimeterSpacing=15;endSize=4;startSize=4;endArrow=blockThin;endFill=1;strokeWidth=1.5;startArrow=none;startFill=0;exitX=0.5;exitY=1;exitDx=0;exitDy=0;entryX=0.053;entryY=-0.007;entryDx=0;entryDy=0;entryPerimeter=0;" edge="1" parent="1" source="p3CoxOxOetRKkpcrqFFQ-25" target="p3CoxOxOetRKkpcrqFFQ-4">
          <mxGeometry relative="1" as="geometry">
            <mxPoint x="-50" y="1590" as="targetPoint" />
            <mxPoint x="-110" y="1570" as="sourcePoint" />
            <Array as="points">
              <mxPoint x="-225" y="1550" />
              <mxPoint x="-81" y="1550" />
            </Array>
          </mxGeometry>
        </mxCell>
        <mxCell id="p3CoxOxOetRKkpcrqFFQ-35" style="edgeStyle=orthogonalEdgeStyle;rounded=0;orthogonalLoop=1;jettySize=auto;html=1;fontSize=18;strokeColor=#475E75;fontFamily=Helvetica;fontColor=default;targetPerimeterSpacing=15;endSize=4;startSize=4;endArrow=blockThin;endFill=1;strokeWidth=1.5;startArrow=none;startFill=0;exitX=0.5;exitY=1;exitDx=0;exitDy=0;entryX=0.5;entryY=0;entryDx=0;entryDy=0;" edge="1" parent="1" source="p3CoxOxOetRKkpcrqFFQ-29" target="p3CoxOxOetRKkpcrqFFQ-4">
          <mxGeometry relative="1" as="geometry">
            <mxPoint x="258" y="1610" as="targetPoint" />
            <mxPoint x="112.97" y="1490" as="sourcePoint" />
            <Array as="points">
              <mxPoint x="165" y="1490" />
            </Array>
          </mxGeometry>
        </mxCell>
        <mxCell id="p3CoxOxOetRKkpcrqFFQ-36" style="edgeStyle=orthogonalEdgeStyle;rounded=0;orthogonalLoop=1;jettySize=auto;html=1;fontSize=18;strokeColor=#475E75;fontFamily=Helvetica;fontColor=default;targetPerimeterSpacing=15;endSize=4;startSize=4;endArrow=blockThin;endFill=1;strokeWidth=1.5;startArrow=none;startFill=0;exitX=0.5;exitY=1;exitDx=0;exitDy=0;entryX=0.25;entryY=0;entryDx=0;entryDy=0;" edge="1" parent="1" source="p3CoxOxOetRKkpcrqFFQ-20" target="p3CoxOxOetRKkpcrqFFQ-4">
          <mxGeometry relative="1" as="geometry">
            <mxPoint x="-71" y="1619" as="targetPoint" />
            <mxPoint x="-295" y="1500" as="sourcePoint" />
            <Array as="points">
              <mxPoint x="-30" y="1550" />
              <mxPoint x="27" y="1550" />
            </Array>
          </mxGeometry>
        </mxCell>
        <mxCell id="p3CoxOxOetRKkpcrqFFQ-37" style="edgeStyle=orthogonalEdgeStyle;rounded=0;orthogonalLoop=1;jettySize=auto;html=1;fontSize=18;strokeColor=#475E75;fontFamily=Helvetica;fontColor=default;targetPerimeterSpacing=15;endSize=4;startSize=4;endArrow=blockThin;endFill=1;strokeWidth=1.5;startArrow=none;startFill=0;exitX=0.5;exitY=1;exitDx=0;exitDy=0;entryX=0.75;entryY=0;entryDx=0;entryDy=0;" edge="1" parent="1" source="p3CoxOxOetRKkpcrqFFQ-19" target="p3CoxOxOetRKkpcrqFFQ-4">
          <mxGeometry relative="1" as="geometry">
            <mxPoint x="38" y="1620" as="targetPoint" />
            <mxPoint x="-58" y="1500" as="sourcePoint" />
            <Array as="points">
              <mxPoint x="360" y="1550" />
              <mxPoint x="303" y="1550" />
            </Array>
          </mxGeometry>
        </mxCell>
        <mxCell id="p3CoxOxOetRKkpcrqFFQ-38" style="edgeStyle=orthogonalEdgeStyle;rounded=0;orthogonalLoop=1;jettySize=auto;html=1;fontSize=18;strokeColor=#475E75;fontFamily=Helvetica;fontColor=default;targetPerimeterSpacing=15;endSize=4;startSize=4;endArrow=blockThin;endFill=1;strokeWidth=1.5;startArrow=none;startFill=0;exitX=0.5;exitY=1;exitDx=0;exitDy=0;entryX=0.945;entryY=-0.014;entryDx=0;entryDy=0;entryPerimeter=0;" edge="1" parent="1" source="p3CoxOxOetRKkpcrqFFQ-17" target="p3CoxOxOetRKkpcrqFFQ-4">
          <mxGeometry relative="1" as="geometry">
            <mxPoint x="380" y="1600" as="targetPoint" />
            <mxPoint x="405" y="1500" as="sourcePoint" />
            <Array as="points">
              <mxPoint x="556" y="1560" />
              <mxPoint x="410" y="1560" />
            </Array>
          </mxGeometry>
        </mxCell>
        <mxCell id="p3CoxOxOetRKkpcrqFFQ-39" style="edgeStyle=orthogonalEdgeStyle;rounded=0;orthogonalLoop=1;jettySize=auto;html=1;fontSize=18;strokeColor=#475E75;fontFamily=Helvetica;fontColor=default;targetPerimeterSpacing=15;endSize=4;startSize=4;endArrow=blockThin;endFill=1;strokeWidth=1.5;startArrow=none;startFill=0;flowAnimation=1;entryX=0.5;entryY=0;entryDx=0;entryDy=0;" edge="1" parent="1" target="p3CoxOxOetRKkpcrqFFQ-7">
          <mxGeometry relative="1" as="geometry">
            <mxPoint x="170" y="1770" as="targetPoint" />
            <mxPoint x="170" y="1700" as="sourcePoint" />
            <Array as="points">
              <mxPoint x="170" y="1839" />
            </Array>
          </mxGeometry>
        </mxCell>
        <mxCell id="p3CoxOxOetRKkpcrqFFQ-40" value="" style="endArrow=none;html=1;strokeColor=#d20a0a;bendable=1;rounded=0;endFill=0;endSize=4;edgeStyle=entityRelationEdgeStyle;startArrow=none;startFill=0;startSize=4;jumpStyle=none;jumpSize=0;targetPerimeterSpacing=15;dashed=1;strokeWidth=1.5;fontSize=16;curved=1;" edge="1" parent="1">
          <mxGeometry width="50" height="50" relative="1" as="geometry">
            <mxPoint x="57" y="1786.71" as="sourcePoint" />
            <mxPoint x="287" y="1787" as="targetPoint" />
          </mxGeometry>
        </mxCell>
        <mxCell id="p3CoxOxOetRKkpcrqFFQ-41" value="&lt;font color=&quot;#d21108&quot; size=&quot;1&quot;&gt;&lt;b style=&quot;&quot;&gt;Firewall&lt;/b&gt;&lt;/font&gt;" style="rounded=1;whiteSpace=wrap;html=1;arcSize=50;strokeColor=#d21108;fillColor=default;strokeWidth=1.5;" vertex="1" parent="1">
          <mxGeometry x="141.5" y="1779" width="57" height="16" as="geometry" />
        </mxCell>
        <mxCell id="p3CoxOxOetRKkpcrqFFQ-42" style="edgeStyle=orthogonalEdgeStyle;rounded=0;orthogonalLoop=1;jettySize=auto;html=1;fontSize=18;strokeColor=#5d36ff;fontFamily=Helvetica;fontColor=default;targetPerimeterSpacing=15;endSize=4;startSize=4;endArrow=blockThin;endFill=1;strokeWidth=1.5;startArrow=none;startFill=0;exitX=0;exitY=0.5;exitDx=0;exitDy=0;entryX=0.181;entryY=-0.009;entryDx=0;entryDy=0;entryPerimeter=0;flowAnimation=1;" edge="1" parent="1" source="p3CoxOxOetRKkpcrqFFQ-45" target="p3CoxOxOetRKkpcrqFFQ-1">
          <mxGeometry relative="1" as="geometry">
            <mxPoint x="-251.95" y="1669" as="targetPoint" />
            <mxPoint x="-475.95" y="1550" as="sourcePoint" />
            <Array as="points">
              <mxPoint x="-286" y="1655" />
            </Array>
          </mxGeometry>
        </mxCell>
        <mxCell id="p3CoxOxOetRKkpcrqFFQ-43" value="" style="edgeStyle=none;curved=1;rounded=0;orthogonalLoop=1;jettySize=auto;html=1;fontSize=16;startSize=14;endArrow=open;endSize=14;sourcePerimeterSpacing=8;targetPerimeterSpacing=8;" edge="1" parent="1" source="p3CoxOxOetRKkpcrqFFQ-44" target="p3CoxOxOetRKkpcrqFFQ-8">
          <mxGeometry relative="1" as="geometry" />
        </mxCell>
        <mxCell id="p3CoxOxOetRKkpcrqFFQ-44" value="" style="shape=image;verticalLabelPosition=bottom;labelBackgroundColor=default;verticalAlign=top;aspect=fixed;imageAspect=0;image=data:image/svg+xml,PHN2ZyB4bWxuczp4bGluaz0iaHR0cDovL3d3dy53My5vcmcvMTk5OS94bGluayIgeG1sbnM9Imh0dHA6Ly93d3cudzMub3JnLzIwMDAvc3ZnIiB2aWV3Qm94PSIwIDAgNDEyLjM4IDIwNCIgZGF0YS1uYW1lPSJMYXllciAxIiBpZD0iTGF5ZXJfMSI+PGRlZnM+PHN0eWxlPi5jbHMtMSwuY2xzLTJ7ZmlsbC1ydWxlOmV2ZW5vZGQ7fS5jbHMtMXtmaWxsOnVybCgjbGluZWFyLWdyYWRpZW50KTt9LmNscy0ye2ZpbGw6I2ZmZjt9PC9zdHlsZT48bGluZWFyR3JhZGllbnQgZ3JhZGllbnRVbml0cz0idXNlclNwYWNlT25Vc2UiIHkyPSIyMDQiIHgyPSIyMDYuMTkiIHgxPSIyMDYuMTkiIGlkPSJsaW5lYXItZ3JhZGllbnQiPjxzdG9wIHN0b3AtY29sb3I9IiMwMGI4ZjEiIG9mZnNldD0iMCIvPjxzdG9wIHN0b3AtY29sb3I9IiMwMWI2ZjAiIG9mZnNldD0iMC4wMiIvPjxzdG9wIHN0b3AtY29sb3I9IiMwZDkwZDkiIG9mZnNldD0iMC4zMSIvPjxzdG9wIHN0b3AtY29sb3I9IiMxNzc1YzgiIG9mZnNldD0iMC41OCIvPjxzdG9wIHN0b3AtY29sb3I9IiMxYzY1YmYiIG9mZnNldD0iMC44MiIvPjxzdG9wIHN0b3AtY29sb3I9IiMxZTVmYmIiIG9mZnNldD0iMSIvPjwvbGluZWFyR3JhZGllbnQ+PC9kZWZzPjx0aXRsZT5TQVBfZ3JhZF9SX3Njcm5fWmVpY2hlbmZsw6RjaGUgMTwvdGl0bGU+PHBvbHlsaW5lIHBvaW50cz0iMCAyMDQgMjA4LjQxIDIwNCA0MTIuMzggMCAwIDAgMCAyMDQiIGNsYXNzPSJjbHMtMSIvPjxwYXRoIGQ9Ik0yNDQuNzMsMzguMzZsLTQwLjYsMHY5Ni41MkwxNjguNjcsMzguMzNIMTMzLjUxbC0zMC4yNyw4MC43MkMxMDAsOTguNyw3OSw5MS42Nyw2Mi40LDg2LjQsNTEuNDYsODIuODksMzkuODUsNzcuNzIsNDAsNzJjLjA5LTQuNjgsNi4yMy05LDE4LjM4LTguMzgsOC4xNy40MywxNS4zNywxLjA5LDI5LjcxLDhsMTQuMS0yNC41NUM4OS4wNiw0MC40Miw3MSwzNi4yMSw1Ni4xNywzNi4xOWgtLjA5Yy0xNy4yOCwwLTMxLjY4LDUuNi00MC42LDE0LjgzQTM0LjIzLDM0LjIzLDAsMCwwLDUuNzcsNzQuN0M1LjU0LDg3LjE1LDEwLjExLDk2LDE5LjcxLDEwM2M4LjEsNS45NCwxOC40Niw5Ljc5LDI3LjYsMTIuNjIsMTEuMjcsMy40OSwyMC40Nyw2LjUzLDIwLjM2LDEzQTkuNTcsOS41NywwLDAsMSw2NSwxMzVjLTIuODEsMi45LTcuMTMsNC0xMy4wOSw0LjEtMTEuNDkuMjQtMjAtMS41Ni0zMy42MS05LjU5TDUuNzcsMTU0LjQyYTkzLjc3LDkzLjc3LDAsMCwwLDQ2LDEyLjIybDIuMTEsMGMxNC4yNC0uMjUsMjUuNzQtNC4zMSwzNC45Mi0xMS43MS41My0uNDEsMS0uODQsMS40OS0xLjI4TDg2LjE3LDE2NC41SDEyM2w2LjE5LTE4LjgyYTY3LjQ2LDY3LjQ2LDAsMCwwLDIxLjY4LDMuNDMsNjguMzMsNjguMzMsMCwwLDAsMjEuMTYtMy4yNWw2LDE4LjY0aDYwLjE0di0zOWgxMy4xMWMzMS43MSwwLDUwLjQ2LTE2LjE1LDUwLjQ2LTQzLjJDMzAxLjc0LDUyLjE5LDI4My41MiwzOC4zNiwyNDQuNzMsMzguMzZaTTE1MC45MSwxMjFhMzYuOTMsMzYuOTMsMCwwLDEtMTMtMi4yOGwxMi44Ny00MC41OUgxNTFsMTIuNjUsNDAuNzFBMzguNSwzOC41LDAsMCwxLDE1MC45MSwxMjFabTk2LjItMjMuMzNoLTguOTRWNjQuOTFoOC45NGMxMS45MywwLDIxLjQ0LDQsMjEuNDQsMTYuMTQsMCwxMi42LTkuNTEsMTYuNTctMjEuNDQsMTYuNTciIGNsYXNzPSJjbHMtMiIvPjwvc3ZnPg==;" vertex="1" parent="1">
          <mxGeometry x="90" y="1854.73" width="37.46" height="18.55" as="geometry" />
        </mxCell>
        <mxCell id="p3CoxOxOetRKkpcrqFFQ-46" value="" style="edgeStyle=orthogonalEdgeStyle;rounded=0;orthogonalLoop=1;jettySize=auto;html=1;fontSize=18;strokeColor=#5d36ff;fontFamily=Helvetica;fontColor=default;targetPerimeterSpacing=15;endSize=4;startSize=4;endArrow=blockThin;endFill=1;strokeWidth=1.5;startArrow=none;startFill=0;exitX=0;exitY=0.5;exitDx=0;exitDy=0;entryX=0.181;entryY=-0.009;entryDx=0;entryDy=0;entryPerimeter=0;flowAnimation=1;" edge="1" parent="1" source="p3CoxOxOetRKkpcrqFFQ-4" target="p3CoxOxOetRKkpcrqFFQ-45">
          <mxGeometry relative="1" as="geometry">
            <mxPoint x="-285" y="1769" as="targetPoint" />
            <mxPoint x="-110" y="1655" as="sourcePoint" />
            <Array as="points">
              <mxPoint x="-138" y="1655" />
              <mxPoint x="-138" y="1650" />
              <mxPoint x="-217" y="1650" />
            </Array>
          </mxGeometry>
        </mxCell>
        <mxCell id="p3CoxOxOetRKkpcrqFFQ-45" value="&lt;font size=&quot;1&quot; color=&quot;#f5f6f7&quot;&gt;&lt;b style=&quot;&quot;&gt;Authorize&lt;/b&gt;&lt;/font&gt;" style="rounded=1;whiteSpace=wrap;html=1;arcSize=50;strokeColor=none;fillColor=#5d36ff;strokeWidth=1.5;" vertex="1" parent="1">
          <mxGeometry x="-228.05" y="1647" width="62.73" height="16" as="geometry" />
        </mxCell>
      </root>
    </mxGraphModel>
  </diagram>
</mxfile>
